<svg width="24" height="24" viewBox="0 0 24 24" fill="none" xmlns="http://www.w3.org/2000/svg">
<path d="M10.231 15.8848L8.10974 13.7635L4.00149 17.8718L6.12279 19.9931L10.231 15.8848Z" fill="black"/>
<path d="M11.2873 12.7015C11.3773 13.4915 11.2473 14.0715 11.0573 14.5915C10.8573 15.1015 10.5773 15.5315 10.2273 15.8815C9.87729 16.2415 9.44729 16.5215 8.93729 16.7115C8.41729 16.9015 7.83729 17.0215 7.04729 16.9415C6.95729 16.1415 7.08729 15.5615 7.27729 15.0515C7.47729 14.5415 7.75729 14.1115 8.10729 13.7615C8.45729 13.4115 8.88729 13.1315 9.39729 12.9315C9.91729 12.7415 10.4973 12.6115 11.2873 12.7015Z" fill="black"/>
<path d="M8.10825 10.2296L10.2296 8.10828L6.1213 4.00003L4 6.12133L8.10825 10.2296Z" fill="black"/>
<path d="M11.2873 11.2815C10.4973 11.3715 9.91725 11.2415 9.39725 11.0515C8.88725 10.8515 8.45725 10.5715 8.10725 10.2215C7.74725 9.87149 7.46725 9.44149 7.27725 8.93149C7.08725 8.41149 6.96725 7.83149 7.04725 7.04149C7.84725 6.95149 8.42725 7.08149 8.93725 7.27149C9.44725 7.47149 9.87725 7.75149 10.2273 8.10149C10.5773 8.45149 10.8572 8.88149 11.0572 9.39149C11.2472 9.91149 11.3773 10.4915 11.2873 11.2815Z" fill="black"/>
<path d="M13.766 8.10929L15.8873 10.2306L19.9956 6.12234L17.8743 4.00104L13.766 8.10929Z" fill="black"/>
<path d="M12.7073 11.2815C12.6173 10.4915 12.7473 9.91151 12.9373 9.39151C13.1373 8.88151 13.4173 8.45151 13.7673 8.10151C14.1173 7.74151 14.5473 7.46151 15.0573 7.27151C15.5773 7.08151 16.1573 6.96151 16.9473 7.04151C17.0373 7.84151 16.9073 8.42151 16.7173 8.93151C16.5173 9.44151 16.2373 9.87151 15.8873 10.2215C15.5373 10.5715 15.1073 10.8515 14.5973 11.0515C14.0773 11.2415 13.4973 11.3715 12.7073 11.2815Z" fill="black"/>
<path d="M15.8838 13.7646L13.7625 15.8859L17.8708 19.9941L19.9921 17.8728L15.8838 13.7646Z" fill="black"/>
<path d="M12.7073 12.7015C13.4973 12.6115 14.0773 12.7415 14.5973 12.9315C15.1073 13.1315 15.5373 13.4115 15.8873 13.7615C16.2473 14.1115 16.5273 14.5415 16.7173 15.0515C16.9073 15.5715 17.0273 16.1515 16.9473 16.9415C16.1473 17.0315 15.5673 16.9015 15.0573 16.7115C14.5473 16.5115 14.1173 16.2315 13.7673 15.8815C13.4173 15.5315 13.1373 15.1015 12.9373 14.5915C12.7473 14.0715 12.6173 13.4915 12.7073 12.7015Z" fill="black"/>
</svg>
