<svg width="24" height="24" viewBox="0 0 24 24" fill="none" xmlns="http://www.w3.org/2000/svg">
<path d="M14.2331 11.8941L12.1118 9.77283L8.00357 13.8811L10.1249 16.0024L14.2331 11.8941Z" fill="black"/>
<path d="M15.29 8.70995C15.38 9.49995 15.25 10.0799 15.06 10.5999C14.86 11.1099 14.58 11.5399 14.23 11.8899C13.88 12.2499 13.45 12.5299 12.94 12.7199C12.42 12.9099 11.84 13.0299 11.05 12.9499C10.96 12.1499 11.09 11.5699 11.28 11.0599C11.48 10.5499 11.76 10.1199 12.11 9.76995C12.46 9.41995 12.89 9.13995 13.4 8.93995C13.92 8.74995 14.5 8.61995 15.29 8.70995Z" fill="black"/>
<path d="M12.1086 6.23898L14.2299 4.11768L10.1217 0.00942497L8.00037 2.13072L12.1086 6.23898Z" fill="black"/>
<path d="M15.29 7.29004C14.5 7.38004 13.92 7.25004 13.4 7.06004C12.89 6.86004 12.46 6.58004 12.11 6.23004C11.75 5.88004 11.47 5.45004 11.28 4.94004C11.09 4.42004 10.97 3.84004 11.05 3.05004C11.85 2.96004 12.43 3.09004 12.94 3.28004C13.45 3.48004 13.88 3.76004 14.23 4.11004C14.58 4.46004 14.86 4.89004 15.06 5.40004C15.25 5.92004 15.38 6.50004 15.29 7.29004Z" fill="black"/>
<path d="M17.7663 4.11686L19.8876 6.23816L23.9958 2.12991L21.8745 0.00860845L17.7663 4.11686Z" fill="black"/>
<path d="M16.71 7.29006C16.62 6.50006 16.75 5.92006 16.94 5.40006C17.14 4.89006 17.42 4.46006 17.77 4.11006C18.12 3.75006 18.55 3.47006 19.06 3.28006C19.58 3.09006 20.16 2.97006 20.95 3.05006C21.04 3.85006 20.91 4.43006 20.72 4.94006C20.52 5.45006 20.24 5.88006 19.89 6.23006C19.54 6.58006 19.11 6.86006 18.6 7.06006C18.08 7.25006 17.5 7.38006 16.71 7.29006Z" fill="black"/>
<path d="M19.8859 9.77213L17.7646 11.8934L21.8728 16.0017L23.9941 13.8804L19.8859 9.77213Z" fill="black"/>
<path d="M16.71 8.70995C17.5 8.61995 18.08 8.74995 18.6 8.93995C19.11 9.13995 19.54 9.41995 19.89 9.76995C20.25 10.1199 20.53 10.5499 20.72 11.0599C20.91 11.5799 21.03 12.1599 20.95 12.9499C20.15 13.0399 19.57 12.9099 19.06 12.7199C18.55 12.5199 18.12 12.2399 17.77 11.8899C17.42 11.5399 17.14 11.1099 16.94 10.5999C16.75 10.0799 16.62 9.49995 16.71 8.70995Z" fill="black"/>
</svg>
