<svg width="24" height="24" viewBox="0 0 24 24" fill="none" xmlns="http://www.w3.org/2000/svg">
<path d="M6.23373 11.8933L4.11243 9.77197L0.00417561 13.8802L2.12548 16.0015L6.23373 11.8933Z" fill="black"/>
<path d="M7.28997 8.70995C7.37997 9.49995 7.24997 10.0799 7.05997 10.5999C6.85997 11.1099 6.57998 11.5399 6.22998 11.8899C5.87998 12.2499 5.44998 12.5299 4.93998 12.7199C4.41998 12.9099 3.83998 13.0299 3.04998 12.9499C2.95998 12.1499 3.08997 11.5699 3.27997 11.0599C3.47997 10.5499 3.75997 10.1199 4.10997 9.76995C4.45997 9.41995 4.88998 9.13995 5.39998 8.93995C5.91998 8.74995 6.49997 8.61995 7.28997 8.70995Z" fill="black"/>
<path d="M4.111 6.238L6.2323 4.1167L2.12405 0.00844841L0.00274907 2.12975L4.111 6.238Z" fill="black"/>
<path d="M7.29 7.28992C6.5 7.37992 5.92 7.24992 5.4 7.05992C4.89 6.85992 4.46 6.57992 4.11 6.22992C3.75 5.87992 3.46999 5.44992 3.27999 4.93992C3.08999 4.41992 2.97 3.83992 3.05 3.04992C3.85 2.95992 4.43 3.08992 4.94 3.27992C5.45 3.47992 5.88 3.75992 6.23 4.10992C6.58 4.45992 6.85999 4.88992 7.05999 5.39992C7.24999 5.91992 7.38 6.49992 7.29 7.28992Z" fill="black"/>
<path d="M9.76881 4.11771L11.8901 6.23901L15.9984 2.13076L13.8771 0.00946294L9.76881 4.11771Z" fill="black"/>
<path d="M8.71001 7.28994C8.62001 6.49994 8.75001 5.91994 8.94001 5.39994C9.14001 4.88994 9.42001 4.45994 9.77001 4.10994C10.12 3.74994 10.55 3.46994 11.06 3.27994C11.58 3.08994 12.16 2.96994 12.95 3.04994C13.04 3.84994 12.91 4.42994 12.72 4.93994C12.52 5.44994 12.24 5.87994 11.89 6.22994C11.54 6.57994 11.11 6.85994 10.6 7.05994C10.08 7.24994 9.50001 7.37994 8.71001 7.28994Z" fill="black"/>
<path d="M11.8866 9.77299L9.76526 11.8943L13.8735 16.0025L15.9948 13.8812L11.8866 9.77299Z" fill="black"/>
<path d="M8.71001 8.70995C9.50001 8.61995 10.08 8.74995 10.6 8.93995C11.11 9.13995 11.54 9.41995 11.89 9.76995C12.25 10.1199 12.53 10.5499 12.72 11.0599C12.91 11.5799 13.03 12.1599 12.95 12.9499C12.15 13.0399 11.57 12.9099 11.06 12.7199C10.55 12.5199 10.12 12.2399 9.77001 11.8899C9.42001 11.5399 9.14001 11.1099 8.94001 10.5999C8.75001 10.0799 8.62001 9.49995 8.71001 8.70995Z" fill="black"/>
</svg>
