<svg width="24" height="25" viewBox="0 0 24 25" fill="none" xmlns="http://www.w3.org/2000/svg">
<path d="M6.23312 19.8928L4.11182 17.7715L0.00356459 21.8797L2.12486 24.001L6.23312 19.8928Z" fill="#C0E21B"/>
<path d="M7.28997 16.7099C7.37997 17.4999 7.24997 18.0799 7.05997 18.5999C6.85997 19.1099 6.57998 19.5399 6.22998 19.8899C5.87998 20.2499 5.44998 20.53 4.93998 20.72C4.41998 20.91 3.83998 21.03 3.04998 20.95C2.95998 20.15 3.08997 19.57 3.27997 19.06C3.47997 18.55 3.75997 18.12 4.10997 17.77C4.45997 17.42 4.88998 17.1399 5.39998 16.9399C5.91998 16.7499 6.49997 16.6199 7.28997 16.7099Z" fill="#C0E21B"/>
<path d="M4.11039 14.2364L6.23169 12.1151L2.12344 8.00686L0.00213771 10.1282L4.11039 14.2364Z" fill="#C0E21B"/>
<path d="M7.29 15.2899C6.5 15.3799 5.92 15.2499 5.4 15.0599C4.89 14.8599 4.46 14.5799 4.11 14.2299C3.75 13.8799 3.46999 13.4499 3.27999 12.9399C3.08999 12.4199 2.97 11.8399 3.05 11.0499C3.85 10.9599 4.43 11.0899 4.94 11.2799C5.45 11.4799 5.88 11.7599 6.23 12.1099C6.58 12.4599 6.85999 12.8899 7.05999 13.3999C7.24999 13.9199 7.38 14.4999 7.29 15.2899Z" fill="#C0E21B"/>
<path d="M9.76926 12.1161L11.8906 14.2374L15.9988 10.1292L13.8775 8.00788L9.76926 12.1161Z" fill="#C0E21B"/>
<path d="M8.70998 15.2899C8.61998 14.4999 8.74998 13.9199 8.93998 13.3999C9.13998 12.8899 9.41998 12.4599 9.76998 12.1099C10.12 11.7499 10.55 11.4699 11.06 11.2799C11.58 11.0899 12.16 10.9699 12.95 11.0499C13.04 11.8499 12.91 12.4299 12.72 12.9399C12.52 13.4499 12.24 13.8799 11.89 14.2299C11.54 14.5799 11.11 14.8599 10.6 15.0599C10.08 15.2499 9.49998 15.3799 8.70998 15.2899Z" fill="#C0E21B"/>
<path d="M11.887 17.7725L9.76575 19.8938L13.874 24.0021L15.9953 21.8808L11.887 17.7725Z" fill="#C0E21B"/>
<path d="M8.70998 16.7099C9.49998 16.6199 10.08 16.7499 10.6 16.9399C11.11 17.1399 11.54 17.42 11.89 17.77C12.25 18.12 12.53 18.55 12.72 19.06C12.91 19.58 13.03 20.16 12.95 20.95C12.15 21.04 11.57 20.91 11.06 20.72C10.55 20.52 10.12 20.2399 9.76998 19.8899C9.41998 19.5399 9.13998 19.1099 8.93998 18.5999C8.74998 18.0799 8.61998 17.4999 8.70998 16.7099Z" fill="#C0E21B"/>
</svg>
