<svg width="24" height="24" viewBox="0 0 24 24" fill="none" xmlns="http://www.w3.org/2000/svg">
<path d="M-0.000979747 14.501L-0.000976562 17.501L5.99902 17.501L5.99902 14.501L-0.000979747 14.501Z" fill="#C0E21B"/>
<path d="M9 16C8.5 15.38 8 15.06 7.5 14.82C7 14.6 6.5 14.5 6 14.5C5.5 14.5 5 14.6 4.5 14.82C4 15.05 3.5 15.37 3 16C3.5 16.62 4 16.95 4.5 17.18C5 17.4 5.5 17.5 6 17.5C6.5 17.5 7 17.4 7.5 17.18C8 16.94 8.5 16.62 9 16Z" fill="#C0E21B"/>
<path d="M10.88 16.88C11.44 16.32 12.2 16 13 16H16L8.00001 24L5.88 21.88L10.88 16.88Z" fill="#C0E21B"/>
<path d="M10.88 15.12C11.44 15.68 12.2 16 13 16H16L8.00001 8L5.88 10.12L10.88 15.12Z" fill="#C0E21B"/>
</svg>
