<svg width="24" height="24" viewBox="0 0 24 24" fill="none" xmlns="http://www.w3.org/2000/svg">
<path d="M7.99859 14.5005L7.9986 17.5005L13.9986 17.5005L13.9986 14.5005L7.99859 14.5005Z" fill="black"/>
<path d="M17 16C16.5 15.38 16 15.06 15.5 14.82C15 14.6 14.5 14.5 14 14.5C13.5 14.5 13 14.6 12.5 14.82C12 15.05 11.5 15.37 11 16C11.5 16.62 12 16.95 12.5 17.18C13 17.4 13.5 17.5 14 17.5C14.5 17.5 15 17.4 15.5 17.18C16 16.94 16.5 16.62 17 16Z" fill="black"/>
<path d="M18.88 16.88C19.44 16.32 20.21 16 21 16H24L16 24L13.88 21.88L18.88 16.88Z" fill="black"/>
<path d="M18.88 15.12C19.44 15.68 20.21 16 21 16H24L16 8L13.88 10.12L18.88 15.12Z" fill="black"/>
</svg>
