<svg width="120" height="120" viewBox="0 0 120 120" fill="none" xmlns="http://www.w3.org/2000/svg">
<g clip-path="url(#clip0_12:15)">
<rect width="120" height="120" fill="#FF5252"/>
<g clip-path="url(#clip1_12:15)">
<path d="M73.7629 60.8356C71.5759 60.7648 69.3665 60.8108 67.0877 61.2498C69.0789 62.4416 71.1394 63.2406 73.2187 63.922C75.3028 64.587 77.4122 65.0981 79.5466 65.4775L109.922 70.8334L110.616 66.8942L80.2412 61.5382C78.1057 61.1647 75.9488 60.9235 73.7629 60.8356ZM72.6471 65.4924C70.6163 64.6779 68.5243 63.9654 66.2328 63.5985C67.6963 65.3996 69.3593 66.855 71.0801 68.2065C72.8111 69.5442 74.6185 70.7459 76.4944 71.8325L94.3616 82.1481L96.3616 78.684L78.4944 68.3684C76.6155 67.287 74.6711 66.3226 72.6471 65.4924ZM70.0059 69.4868C68.3761 68.0267 66.654 66.6418 64.6262 65.5133C65.3854 67.7062 66.4503 69.6427 67.6051 71.5013C68.7742 73.3503 70.0615 75.0977 71.4528 76.7603L87.8208 96.267L90.885 93.6959L74.5169 74.1892C73.1211 72.5304 71.6239 70.9591 70.0059 69.4868ZM66.1578 72.3369C65.1257 70.4075 63.9811 68.517 62.4615 66.763C62.4249 69.0834 62.7633 71.2673 63.2128 73.4087C63.679 75.5461 64.2911 77.6284 65.0297 79.6666L65.9917 82.3098L69.7505 80.9417L68.7885 78.2985C68.0442 76.2624 67.1746 74.2738 66.1578 72.3369ZM61.567 73.6989C61.257 71.5329 60.828 69.365 60 67.1971C59.172 69.365 58.743 71.5329 58.433 73.699C58.14 75.8669 58.003 78.0329 58 80.2008L58 111.829L62 111.829L62 80.2008C61.997 78.0329 61.86 75.8669 61.567 73.6989ZM56.7872 73.4087C57.2367 71.2673 57.5751 69.0834 57.5385 66.763C56.0189 68.517 54.8743 70.4075 53.8422 72.3369C52.8254 74.2738 51.9558 76.2624 51.2115 78.2985L43.5786 99.2697L47.3374 100.638L54.9703 79.6666C55.7089 77.6284 56.321 75.5461 56.7872 73.4087ZM52.3949 71.5013C53.5497 69.6427 54.6146 67.7062 55.3738 65.5133C53.346 66.6418 51.6239 68.0267 49.9941 69.4868C48.3761 70.9591 46.8789 72.5304 45.4831 74.1892L21.5989 102.653L24.6631 105.224L48.5472 76.7603C49.9385 75.0977 51.2258 73.3503 52.3949 71.5013ZM48.9199 68.2065C50.6407 66.855 52.3037 65.3996 53.7672 63.5985C51.4757 63.9654 49.3837 64.6779 47.3529 65.4924C45.3289 66.3226 43.3845 67.287 41.5056 68.3684L33.515 72.9817L35.515 76.4458L43.5056 71.8325C45.3815 70.7459 47.1889 69.5442 48.9199 68.2065ZM46.7813 63.922C48.8606 63.2406 50.9211 62.4416 52.9123 61.2498C50.6335 60.8108 48.424 60.7648 46.2371 60.8356C44.0512 60.9235 41.8943 61.1647 39.7588 61.5382L12.2283 66.3926L12.9229 70.3318L40.4534 65.4775C42.5878 65.098 44.6972 64.587 46.7813 63.922ZM46.2371 59.1644C48.424 59.2352 50.6335 59.1892 52.9123 58.7503C50.9211 57.5584 48.8606 56.7594 46.7813 56.078C44.6972 55.413 42.5878 54.902 40.4534 54.5226L25.6867 51.9188L24.9921 55.858L39.7588 58.4618C41.8943 58.8353 44.0512 59.0765 46.2371 59.1644ZM47.3529 54.5076C49.3837 55.3222 51.4757 56.0346 53.7672 56.4015C52.3037 54.6005 50.6407 53.145 48.9199 51.7935C47.1889 50.4558 45.3815 49.2541 43.5056 48.1675L20.3156 34.7788L18.3156 38.2429L41.5056 51.6316C43.3845 52.713 45.3289 53.6774 47.3529 54.5076ZM49.9941 50.5133C51.6239 51.9733 53.346 53.3583 55.3738 54.4867C54.6146 52.2938 53.5497 50.3573 52.3949 48.4988C51.2258 46.6497 49.9385 44.9023 48.5472 43.2397L45.2805 39.3465L42.2163 41.9177L45.4831 45.8108C46.8789 47.4696 48.3761 49.0409 49.9941 50.5133ZM53.8422 47.6632C54.8743 49.5926 56.0189 51.483 57.5385 53.237C57.5751 50.9166 57.2367 48.7327 56.7872 46.5913C56.321 44.4539 55.7089 42.3716 54.9703 40.3334L43.3482 8.40204L39.5895 9.77012L51.2115 41.7015C51.9558 43.7376 52.8254 45.7262 53.8422 47.6632ZM58.433 46.3011C58.743 48.4671 59.172 50.635 60 52.803C60.828 50.635 61.257 48.4671 61.567 46.3011C61.86 44.1331 61.997 41.9671 62 39.7992L62 23.4817L58 23.4817L58 39.7992C58.003 41.9671 58.14 44.1331 58.433 46.3011ZM63.2128 46.5913C62.7633 48.7327 62.4249 50.9166 62.4615 53.237C63.9811 51.483 65.1257 49.5926 66.1578 47.6632C67.1746 45.7262 68.0442 43.7376 68.7885 41.7015L74.2157 26.7902L70.457 25.4221L65.0297 40.3334C64.2911 42.3716 63.679 44.4539 63.2128 46.5913ZM67.6051 48.4988C66.4503 50.3573 65.3854 52.2938 64.6262 54.4867C66.654 53.3582 68.3761 51.9733 70.0059 50.5133C71.6239 49.0409 73.1211 47.4696 74.5169 45.8108L91.8724 25.1274L88.8082 22.5563L71.4528 43.2397C70.0615 44.9023 68.7742 46.6497 67.6051 48.4988ZM71.0801 51.7935C69.3593 53.145 67.6963 54.6005 66.2328 56.4015C68.5243 56.0346 70.6163 55.3222 72.6471 54.5076C74.6711 53.6774 76.6155 52.713 78.4944 51.6316L80.2131 50.6394L78.2131 47.1753L76.4944 48.1675C74.6185 49.2541 72.8111 50.4558 71.0801 51.7935ZM73.2187 56.078C71.1394 56.7594 69.0789 57.5584 67.0877 58.7503C69.3665 59.1892 71.5759 59.2352 73.7629 59.1644C75.9488 59.0765 78.1057 58.8353 80.2412 58.4618L112.232 52.821L111.537 48.8818L79.5466 54.5226C77.4122 54.902 75.3028 55.413 73.2187 56.078Z" fill="black"/>
<path d="M73.7629 60.8356C71.5759 60.7648 69.3665 60.8108 67.0877 61.2498C69.0789 62.4416 71.1394 63.2406 73.2187 63.922C75.3028 64.587 77.4122 65.0981 79.5466 65.4775L109.922 70.8334L110.616 66.8942L80.2412 61.5382C78.1057 61.1647 75.9488 60.9235 73.7629 60.8356ZM72.6471 65.4924C70.6163 64.6779 68.5243 63.9654 66.2328 63.5985C67.6963 65.3996 69.3593 66.855 71.0801 68.2065C72.8111 69.5442 74.6185 70.7459 76.4944 71.8325L94.3616 82.1481L96.3616 78.684L78.4944 68.3684C76.6155 67.287 74.6711 66.3226 72.6471 65.4924ZM70.0059 69.4868C68.3761 68.0267 66.654 66.6418 64.6262 65.5133C65.3854 67.7062 66.4503 69.6427 67.6051 71.5013C68.7742 73.3503 70.0615 75.0977 71.4528 76.7603L87.8208 96.267L90.885 93.6959L74.5169 74.1892C73.1211 72.5304 71.6239 70.9591 70.0059 69.4868ZM66.1578 72.3369C65.1257 70.4075 63.9811 68.517 62.4615 66.763C62.4249 69.0834 62.7633 71.2673 63.2128 73.4087C63.679 75.5461 64.2911 77.6284 65.0297 79.6666L65.9917 82.3098L69.7505 80.9417L68.7885 78.2985C68.0442 76.2624 67.1746 74.2738 66.1578 72.3369ZM61.567 73.6989C61.257 71.5329 60.828 69.365 60 67.1971C59.172 69.365 58.743 71.5329 58.433 73.699C58.14 75.8669 58.003 78.0329 58 80.2008L58 111.829L62 111.829L62 80.2008C61.997 78.0329 61.86 75.8669 61.567 73.6989ZM56.7872 73.4087C57.2367 71.2673 57.5751 69.0834 57.5385 66.763C56.0189 68.517 54.8743 70.4075 53.8422 72.3369C52.8254 74.2738 51.9558 76.2624 51.2115 78.2985L43.5786 99.2697L47.3374 100.638L54.9703 79.6666C55.7089 77.6284 56.321 75.5461 56.7872 73.4087ZM52.3949 71.5013C53.5497 69.6427 54.6146 67.7062 55.3738 65.5133C53.346 66.6418 51.6239 68.0267 49.9941 69.4868C48.3761 70.9591 46.8789 72.5304 45.4831 74.1892L21.5989 102.653L24.6631 105.224L48.5472 76.7603C49.9385 75.0977 51.2258 73.3503 52.3949 71.5013ZM48.9199 68.2065C50.6407 66.855 52.3037 65.3996 53.7672 63.5985C51.4757 63.9654 49.3837 64.6779 47.3529 65.4924C45.3289 66.3226 43.3845 67.287 41.5056 68.3684L33.515 72.9817L35.515 76.4458L43.5056 71.8325C45.3815 70.7459 47.1889 69.5442 48.9199 68.2065ZM46.7813 63.922C48.8606 63.2406 50.9211 62.4416 52.9123 61.2498C50.6335 60.8108 48.424 60.7648 46.2371 60.8356C44.0512 60.9235 41.8943 61.1647 39.7588 61.5382L12.2283 66.3926L12.9229 70.3318L40.4534 65.4775C42.5878 65.098 44.6972 64.587 46.7813 63.922ZM46.2371 59.1644C48.424 59.2352 50.6335 59.1892 52.9123 58.7503C50.9211 57.5584 48.8606 56.7594 46.7813 56.078C44.6972 55.413 42.5878 54.902 40.4534 54.5226L25.6867 51.9188L24.9921 55.858L39.7588 58.4618C41.8943 58.8353 44.0512 59.0765 46.2371 59.1644ZM47.3529 54.5076C49.3837 55.3222 51.4757 56.0346 53.7672 56.4015C52.3037 54.6005 50.6407 53.145 48.9199 51.7935C47.1889 50.4558 45.3815 49.2541 43.5056 48.1675L20.3156 34.7788L18.3156 38.2429L41.5056 51.6316C43.3845 52.713 45.3289 53.6774 47.3529 54.5076ZM49.9941 50.5133C51.6239 51.9733 53.346 53.3583 55.3738 54.4867C54.6146 52.2938 53.5497 50.3573 52.3949 48.4988C51.2258 46.6497 49.9385 44.9023 48.5472 43.2397L45.2805 39.3465L42.2163 41.9177L45.4831 45.8108C46.8789 47.4696 48.3761 49.0409 49.9941 50.5133ZM53.8422 47.6632C54.8743 49.5926 56.0189 51.483 57.5385 53.237C57.5751 50.9166 57.2367 48.7327 56.7872 46.5913C56.321 44.4539 55.7089 42.3716 54.9703 40.3334L43.3482 8.40204L39.5895 9.77012L51.2115 41.7015C51.9558 43.7376 52.8254 45.7262 53.8422 47.6632ZM58.433 46.3011C58.743 48.4671 59.172 50.635 60 52.803C60.828 50.635 61.257 48.4671 61.567 46.3011C61.86 44.1331 61.997 41.9671 62 39.7992L62 23.4817L58 23.4817L58 39.7992C58.003 41.9671 58.14 44.1331 58.433 46.3011ZM63.2128 46.5913C62.7633 48.7327 62.4249 50.9166 62.4615 53.237C63.9811 51.483 65.1257 49.5926 66.1578 47.6632C67.1746 45.7262 68.0442 43.7376 68.7885 41.7015L74.2157 26.7902L70.457 25.4221L65.0297 40.3334C64.2911 42.3716 63.679 44.4539 63.2128 46.5913ZM67.6051 48.4988C66.4503 50.3573 65.3854 52.2938 64.6262 54.4867C66.654 53.3582 68.3761 51.9733 70.0059 50.5133C71.6239 49.0409 73.1211 47.4696 74.5169 45.8108L91.8724 25.1274L88.8082 22.5563L71.4528 43.2397C70.0615 44.9023 68.7742 46.6497 67.6051 48.4988ZM71.0801 51.7935C69.3593 53.145 67.6963 54.6005 66.2328 56.4015C68.5243 56.0346 70.6163 55.3222 72.6471 54.5076C74.6711 53.6774 76.6155 52.713 78.4944 51.6316L80.2131 50.6394L78.2131 47.1753L76.4944 48.1675C74.6185 49.2541 72.8111 50.4558 71.0801 51.7935ZM73.2187 56.078C71.1394 56.7594 69.0789 57.5584 67.0877 58.7503C69.3665 59.1892 71.5759 59.2352 73.7629 59.1644C75.9488 59.0765 78.1057 58.8353 80.2412 58.4618L112.232 52.821L111.537 48.8818L79.5466 54.5226C77.4122 54.902 75.3028 55.413 73.2187 56.078Z" fill="black"/>
</g>
</g>
<defs>
<clipPath id="clip0_12:15">
<rect width="120" height="120" fill="white"/>
</clipPath>
<clipPath id="clip1_12:15">
<rect width="120" height="120" fill="white" transform="translate(11.3304 -9.50732) rotate(10)"/>
</clipPath>
</defs>
</svg>
