<svg width="120" height="120" viewBox="0 0 120 120" fill="none" xmlns="http://www.w3.org/2000/svg">
<g clip-path="url(#clip0_2:2)">
<rect width="120" height="120" fill="#ED3749"/>
<path d="M74.1027 60.4184C71.9157 60.3475 69.7062 60.3936 67.4275 60.8325C69.4187 62.0244 71.4791 62.8233 73.5585 63.5048C75.6426 64.1698 77.7519 64.6808 79.8864 65.0602L110.262 70.4162L110.956 66.477L80.581 61.121C78.4455 60.7475 76.2885 60.5063 74.1027 60.4184ZM72.9869 65.0752C70.956 64.2606 68.8641 63.5482 66.5726 63.1813C68.0361 64.9823 69.699 66.4378 71.4199 67.7893C73.1509 69.127 74.9582 70.3287 76.8342 71.4152L94.7014 81.7309L96.7014 78.2668L78.8342 67.9511C76.9552 66.8698 75.0109 65.9054 72.9869 65.0752ZM70.3457 69.0695C68.7159 67.6095 66.9937 66.2245 64.9659 65.096C65.7252 67.289 66.79 69.2255 67.9449 71.084C69.1139 72.9331 70.4013 74.6804 71.7925 76.3431L88.1606 95.8498L91.2248 93.2787L74.8567 73.7719C73.4609 72.1131 71.9636 70.5419 70.3457 69.0695ZM66.4976 71.9196C65.4654 69.9902 64.3208 68.0998 62.8013 66.3458C62.7647 68.6662 63.103 70.8501 63.5526 72.9915C64.0187 75.1289 64.6308 77.2112 65.3695 79.2494L66.3315 81.8925L70.0903 80.5245L69.1282 77.8813C68.3839 75.8452 67.5144 73.8566 66.4976 71.9196ZM61.9068 73.2817C61.5968 71.1157 61.1678 68.9478 60.3398 66.7798C59.5118 68.9478 59.0828 71.1157 58.7728 73.2817C58.4798 75.4496 58.3427 77.6157 58.3397 79.7836L58.3398 111.412L62.3397 111.412L62.3398 79.7836C62.3368 77.6157 62.1998 75.4496 61.9068 73.2817ZM57.1269 72.9915C57.5765 70.8501 57.9148 68.6662 57.8782 66.3458C56.3587 68.0998 55.2141 69.9902 54.1819 71.9196C53.1651 73.8566 52.2956 75.8452 51.5513 77.8813L43.9184 98.8525L47.6772 100.221L55.31 79.2494C56.0487 77.2112 56.6608 75.1289 57.1269 72.9915ZM52.7346 71.084C53.8895 69.2255 54.9543 67.289 55.7136 65.096C53.6858 66.2245 51.9636 67.6095 50.3338 69.0695C48.7159 70.5419 47.2186 72.1131 45.8228 73.7719L21.9387 102.236L25.0029 104.807L48.887 76.3431C50.2782 74.6804 51.5656 72.9331 52.7346 71.084ZM49.2596 67.7893C50.9805 66.4378 52.6434 64.9823 54.1069 63.1813C51.8154 63.5482 49.7235 64.2606 47.6926 65.0752C45.6686 65.9054 43.7243 66.8698 41.8453 67.9511L33.8547 72.5645L35.8547 76.0286L43.8453 71.4152C45.7213 70.3287 47.5286 69.127 49.2596 67.7893ZM47.121 63.5048C49.2003 62.8233 51.2608 62.0244 53.252 60.8325C50.9733 60.3936 48.7638 60.3475 46.5768 60.4184C44.391 60.5063 42.234 60.7475 40.0985 61.121L12.5681 65.9754L13.2627 69.9146L40.7931 65.0602C42.9276 64.6808 45.0369 64.1698 47.121 63.5048ZM46.5768 58.7472C48.7638 58.818 50.9733 58.772 53.252 58.333C51.2608 57.1412 49.2004 56.3422 47.121 55.6608C45.0369 54.9958 42.9276 54.4847 40.7931 54.1053L26.0265 51.5016L25.3319 55.4408L40.0985 58.0446C42.234 58.4181 44.391 58.6593 46.5768 58.7472ZM47.6926 54.0904C49.7235 54.9049 51.8154 55.6174 54.1069 55.9843C52.6434 54.1832 50.9805 52.7277 49.2596 51.3762C47.5286 50.0385 45.7213 48.8369 43.8453 47.7503L20.6554 34.3616L18.6554 37.8257L41.8453 51.2144C43.7243 52.2958 45.6686 53.2602 47.6926 54.0904ZM50.3338 50.096C51.9636 51.5561 53.6858 52.941 55.7136 54.0695C54.9543 51.8766 53.8895 49.9401 52.7346 48.0815C51.5656 46.2325 50.2782 44.4851 48.887 42.8225L45.6203 38.9293L42.5561 41.5005L45.8228 45.3936C47.2186 47.0524 48.7159 48.6236 50.3338 50.096ZM54.1819 47.2459C55.2141 49.1753 56.3587 51.0658 57.8782 52.8198C57.9148 50.4994 57.5765 48.3155 57.1269 46.174C56.6608 44.0367 56.0487 41.9544 55.31 39.9162L43.688 7.98482L39.9292 9.3529L51.5513 41.2843C52.2956 43.3204 53.1651 45.309 54.1819 47.2459ZM58.7728 45.8838C59.0828 48.0499 59.5118 50.2178 60.3398 52.3857C61.1678 50.2178 61.5967 48.0499 61.9067 45.8838C62.1997 43.7159 62.3368 41.5499 62.3398 39.382L62.3398 23.0645L58.3397 23.0645L58.3397 39.382C58.3427 41.5499 58.4798 43.7159 58.7728 45.8838ZM63.5526 46.174C63.103 48.3155 62.7647 50.4994 62.8013 52.8198C64.3208 51.0658 65.4654 49.1753 66.4976 47.2459C67.5144 45.309 68.3839 43.3204 69.1282 41.2843L74.5555 26.373L70.7967 25.0049L65.3695 39.9162C64.6308 41.9544 64.0187 44.0367 63.5526 46.174ZM67.9449 48.0815C66.79 49.9401 65.7252 51.8766 64.9659 54.0695C66.9937 52.941 68.7159 51.5561 70.3457 50.096C71.9636 48.6236 73.4609 47.0524 74.8567 45.3936L92.2121 24.7102L89.148 22.1391L71.7925 42.8225C70.4013 44.4851 69.1139 46.2325 67.9449 48.0815ZM71.4199 51.3762C69.699 52.7277 68.0361 54.1832 66.5726 55.9843C68.8641 55.6174 70.956 54.9049 72.9869 54.0904C75.0109 53.2602 76.9552 52.2958 78.8342 51.2144L80.5528 50.2222L78.5528 46.7581L76.8342 47.7503C74.9582 48.8369 73.1509 50.0385 71.4199 51.3762ZM73.5585 55.6608C71.4792 56.3422 69.4187 57.1412 67.4275 58.333C69.7062 58.772 71.9157 58.818 74.1027 58.7472C76.2885 58.6593 78.4455 58.4181 80.581 58.0446L112.571 52.4038L111.877 48.4646L79.8864 54.1053C77.7519 54.4847 75.6426 54.9958 73.5585 55.6608Z" fill="black"/>
</g>
<defs>
<clipPath id="clip0_2:2">
<rect width="120" height="120" fill="white"/>
</clipPath>
</defs>
</svg>
