<svg width="102" height="48" viewBox="0 0 102 48" fill="none" xmlns="http://www.w3.org/2000/svg">
<path d="M23.7617 36.8192C18.0967 36.8192 11.5997 32.4872 11.5997 23.9912C11.5997 15.4942 17.9307 11.1632 23.7617 11.1632C29.5927 11.1632 35.9227 15.4942 35.9227 23.9912C35.9227 32.4872 29.4257 36.8192 23.7617 36.8192ZM23.7617 7.33118C14.4317 7.33118 7.2677 14.9942 7.2677 23.6582C7.2677 32.3212 13.7657 40.6512 23.7617 40.6512C33.7577 40.6512 40.2547 32.3212 40.2547 23.6582C40.2547 14.9942 33.0907 7.33118 23.7617 7.33118Z" fill="black"/>
<path d="M72.575 8.00098H76.574V39.988H72.575V8.00098Z" fill="black"/>
<path d="M74.2412 8.00098H93.4002V11.666H85.7372V39.988H81.7382V11.666H74.2412V8.00098Z" fill="black"/>
<path d="M60.9131 36.4902V11.5002C60.9131 11.5002 66.7441 11.3332 66.7441 17.4972C66.7441 21.8292 62.0801 23.4952 62.0801 23.4952C62.0801 23.4952 67.7441 24.1612 67.7441 29.8262C67.7441 36.4902 60.9131 36.4902 60.9131 36.4902ZM44.5871 11.3332C44.5871 11.3332 52.2501 11.5002 52.2501 18.8302C52.2501 25.4942 44.5871 26.3272 44.5871 26.3272V11.3332ZM68.4101 22.8292C68.4101 22.8292 70.4101 20.9962 70.4101 17.1642C70.4101 7.8352 60.0801 7.6682 57.0821 7.6682V36.4022C52.6231 35.2012 50.0401 32.5612 48.2521 28.6602C50.5841 27.8272 56.0821 25.8272 56.0821 18.6642C56.0821 10.1672 48.2521 7.5012 40.7551 7.6682V39.9882H44.5871V28.6602C45.0861 33.3242 50.9171 40.3212 58.5811 40.3212C69.2431 40.3212 71.5761 34.0992 71.5761 29.8262C71.5761 24.8282 68.4101 22.8292 68.4101 22.8292Z" fill="black"/>
</svg>
