<svg width="24" height="25" viewBox="0 0 24 25" fill="none" xmlns="http://www.w3.org/2000/svg">
<path d="M14.2326 19.8938L12.1113 17.7725L8.00302 21.8807L10.1243 24.002L14.2326 19.8938Z" fill="black"/>
<path d="M15.29 16.7101C15.38 17.5001 15.25 18.0801 15.06 18.6001C14.86 19.1101 14.58 19.5401 14.23 19.8901C13.88 20.2501 13.45 20.5301 12.94 20.7201C12.42 20.9101 11.84 21.0301 11.05 20.9501C10.96 20.1501 11.09 19.5701 11.28 19.0601C11.48 18.5501 11.76 18.1201 12.11 17.7701C12.46 17.4201 12.89 17.1401 13.4 16.9401C13.92 16.7501 14.5 16.6201 15.29 16.7101Z" fill="black"/>
<path d="M12.108 14.2374L14.2293 12.1161L10.1211 8.00784L7.99976 10.1291L12.108 14.2374Z" fill="black"/>
<path d="M15.29 15.29C14.5 15.38 13.92 15.25 13.4 15.06C12.89 14.86 12.46 14.58 12.11 14.23C11.75 13.88 11.47 13.45 11.28 12.94C11.09 12.42 10.97 11.84 11.05 11.05C11.85 10.96 12.43 11.09 12.94 11.28C13.45 11.48 13.88 11.76 14.23 12.11C14.58 12.46 14.86 12.89 15.06 13.4C15.25 13.92 15.38 14.5 15.29 15.29Z" fill="black"/>
<path d="M17.7668 12.1153L19.8881 14.2366L23.9964 10.1283L21.8751 8.00702L17.7668 12.1153Z" fill="black"/>
<path d="M16.71 15.2901C16.62 14.5001 16.75 13.9201 16.94 13.4001C17.14 12.8901 17.42 12.4601 17.77 12.1101C18.12 11.7501 18.55 11.4701 19.06 11.2801C19.58 11.0901 20.16 10.9701 20.95 11.0501C21.04 11.8501 20.91 12.4301 20.72 12.9401C20.52 13.4501 20.24 13.8801 19.89 14.2301C19.54 14.5801 19.11 14.8601 18.6 15.0601C18.08 15.2501 17.5 15.3801 16.71 15.2901Z" fill="black"/>
<path d="M19.8864 17.7718L17.7651 19.8931L21.8733 24.0013L23.9946 21.88L19.8864 17.7718Z" fill="black"/>
<path d="M16.71 16.7101C17.5 16.6201 18.08 16.7501 18.6 16.9401C19.11 17.1401 19.54 17.4201 19.89 17.7701C20.25 18.1201 20.53 18.5501 20.72 19.0601C20.91 19.5801 21.03 20.1601 20.95 20.9501C20.15 21.0401 19.57 20.9101 19.06 20.7201C18.55 20.5201 18.12 20.2401 17.77 19.8901C17.42 19.5401 17.14 19.1101 16.94 18.6001C16.75 18.0801 16.62 17.5001 16.71 16.7101Z" fill="black"/>
</svg>
