<svg width="24" height="24" viewBox="0 0 24 24" fill="none" xmlns="http://www.w3.org/2000/svg">
<path d="M14.5 13.76C15.63 12.63 17.15 12 18.74 12H20.5L12.5 20L10.38 17.88L14.5 13.76Z" fill="black"/>
<path d="M14.5 10.24C15.63 11.37 17.15 12 18.74 12H20.5L12.5 4L10.38 6.12L14.5 10.24Z" fill="black"/>
<path d="M8.62 13.76C9.75 12.63 11.27 12 12.86 12H14.62L6.62 20L4.5 17.88L8.62 13.76Z" fill="black"/>
<path d="M8.62 10.24C9.75 11.37 11.27 12 12.86 12H14.62L6.62 4L4.5 6.12L8.62 10.24Z" fill="black"/>
</svg>
