<svg width="24" height="24" viewBox="0 0 24 24" fill="none" xmlns="http://www.w3.org/2000/svg">
<path d="M10 9.75999C11.13 8.62999 12.65 8 14.24 8H16L8.00001 16L5.88 13.88L10 9.75999Z" fill="black"/>
<path d="M10 6.24001C11.13 7.37001 12.65 8 14.24 8H16L8.00001 0L5.88 2.12L10 6.24001Z" fill="black"/>
<path d="M4.12 9.75999C5.25 8.62999 6.77 8 8.36 8H10.12L2.12 16L0 13.88L4.12 9.75999Z" fill="black"/>
<path d="M4.12 6.24001C5.25 7.37001 6.77 8 8.36 8H10.12L2.12 0L0 2.12L4.12 6.24001Z" fill="black"/>
</svg>
