<svg width="24" height="24" viewBox="0 0 24 24" fill="none" xmlns="http://www.w3.org/2000/svg">
<path d="M20.0014 10.5005L20.0014 13.5005L14.0014 13.5005L14.0014 10.5005L20.0014 10.5005Z" fill="black"/>
<path d="M11 12C11.5 11.38 12 11.06 12.5 10.82C13 10.6 13.5 10.5 14 10.5C14.5 10.5 15 10.6 15.5 10.82C16 11.05 16.5 11.37 17 12C16.5 12.62 16 12.95 15.5 13.18C15 13.4 14.5 13.5 14 13.5C13.5 13.5 13 13.4 12.5 13.18C12 12.94 11.5 12.62 11 12Z" fill="black"/>
<path d="M9.12 12.88C8.56 12.32 7.78999 12 6.99999 12H3.99999L12 20L14.12 17.88L9.12 12.88Z" fill="black"/>
<path d="M9.12 11.12C8.56 11.68 7.78999 12 6.99999 12H3.99999L12 4L14.12 6.12L9.12 11.12Z" fill="black"/>
</svg>
