<svg width="24" height="24" viewBox="0 0 24 24" fill="none" xmlns="http://www.w3.org/2000/svg">
<path d="M11.49 3C13.32 3 15.06 3.42999 16.66 4.28999C17.52 4.74999 18.49 5.5 19.49 6C18.49 6.5 17.52 7.25001 16.66 7.71001C15.06 8.56001 13.32 9 11.49 9C9.66 9 7.92 8.57001 6.32 7.71001C5.46 7.25001 4.49 6.5 3.49 6C4.49 5.5 5.46 4.74999 6.32 4.28999C7.92 3.42999 9.66 3 11.49 3ZM11.49 0C6.73 0 2.53 2.37 0 6C2.53 9.63 6.73 12 11.49 12C16.25 12 20.45 9.63 22.98 6C20.45 2.37 16.25 0 11.49 0Z" fill="black"/>
</svg>
