<svg width="24" height="24" viewBox="0 0 24 24" fill="none" xmlns="http://www.w3.org/2000/svg">
<path d="M11.49 15C13.32 15 15.06 15.43 16.66 16.29C17.52 16.75 18.49 17.5 19.49 18C18.49 18.5 17.52 19.25 16.66 19.71C15.06 20.56 13.32 21 11.49 21C9.66 21 7.92 20.57 6.32 19.71C5.46 19.25 4.49 18.5 3.49 18C4.49 17.5 5.46 16.75 6.32 16.29C7.92 15.43 9.66 15 11.49 15ZM11.49 12C6.73 12 2.53 14.37 0 18C2.53 21.63 6.73 24 11.49 24C16.25 24 20.45 21.63 22.98 18C20.45 14.37 16.25 12 11.49 12Z" fill="black"/>
</svg>
