<svg width="24" height="24" viewBox="0 0 24 24" fill="none" xmlns="http://www.w3.org/2000/svg">
<path d="M11.49 9C13.32 9 15.06 9.42999 16.66 10.29C17.52 10.75 18.49 11.5 19.49 12C18.49 12.5 17.52 13.25 16.66 13.71C15.06 14.56 13.32 15 11.49 15C9.66 15 7.92 14.57 6.32 13.71C5.46 13.25 4.49 12.5 3.49 12C4.49 11.5 5.46 10.75 6.32 10.29C7.92 9.42999 9.66 9 11.49 9ZM11.49 6C6.73 6 2.53 8.37 0 12C2.53 15.63 6.73 18 11.49 18C16.25 18 20.45 15.63 22.98 12C20.45 8.37 16.25 6 11.49 6Z" fill="black"/>
</svg>
