<svg width="24" height="24" viewBox="0 0 24 24" fill="none" xmlns="http://www.w3.org/2000/svg">
<path d="M7.99817 6.50098L7.99817 9.50098L13.9982 9.50097L13.9982 6.50097L7.99817 6.50098Z" fill="black"/>
<path d="M17 8C16.5 7.38 16 7.06 15.5 6.82C15 6.6 14.5 6.5 14 6.5C13.5 6.5 13 6.6 12.5 6.82C12 7.05 11.5 7.37 11 8C11.5 8.62 12 8.95 12.5 9.18C13 9.4 13.5 9.5 14 9.5C14.5 9.5 15 9.4 15.5 9.18C16 8.94 16.5 8.62 17 8Z" fill="black"/>
<path d="M18.88 8.88C19.44 8.32 20.2 8 21 8H24L16 16L13.88 13.88L18.88 8.88Z" fill="black"/>
<path d="M18.88 7.12C19.44 7.68 20.2 8 21 8H24L16 0L13.88 2.12L18.88 7.12Z" fill="black"/>
</svg>
