<svg width="25" height="24" viewBox="0 0 25 24" fill="none" xmlns="http://www.w3.org/2000/svg">
<path d="M0.998715 6.50146L0.998718 9.50146L6.99872 9.50146L6.99872 6.50146L0.998715 6.50146Z" fill="black"/>
<path d="M10 8C9.5 7.38 9 7.06 8.5 6.82C8 6.6 7.5 6.5 7 6.5C6.5 6.5 6 6.6 5.5 6.82C5 7.05 4.5 7.37 4 8C4.5 8.62 5 8.95 5.5 9.18C6 9.4 6.5 9.5 7 9.5C7.5 9.5 8 9.4 8.5 9.18C9 8.94 9.5 8.62 10 8Z" fill="black"/>
<path d="M11.88 8.88C12.44 8.32 13.2 8 14 8H17L9.00001 16L6.88 13.88L11.88 8.88Z" fill="black"/>
<path d="M11.88 7.12C12.44 7.68 13.2 8 14 8H17L9.00001 0L6.88 2.12L11.88 7.12Z" fill="black"/>
</svg>
