<svg width="24" height="24" viewBox="0 0 24 24" fill="none" xmlns="http://www.w3.org/2000/svg">
<path d="M4 10.5005L4 13.5005L10 13.5005L10 10.5005L4 10.5005Z" fill="black"/>
<path d="M13.0014 12C12.5014 11.38 12.0014 11.06 11.5014 10.82C11.0014 10.6 10.5014 10.5 10.0014 10.5C9.5014 10.5 9.0014 10.6 8.5014 10.82C8.0014 11.05 7.5014 11.37 7.0014 12C7.5014 12.62 8.0014 12.95 8.5014 13.18C9.0014 13.4 9.5014 13.5 10.0014 13.5C10.5014 13.5 11.0014 13.4 11.5014 13.18C12.0014 12.94 12.5014 12.62 13.0014 12Z" fill="black"/>
<path d="M14.8814 12.88C15.4414 12.32 16.2114 12 17.0014 12H20.0014L12.0014 20L9.88141 17.88L14.8814 12.88Z" fill="black"/>
<path d="M14.8814 11.12C15.4414 11.68 16.2114 12 17.0014 12H20.0014L12.0014 4L9.88141 6.12L14.8814 11.12Z" fill="black"/>
</svg>
