<svg width="500" height="501" viewBox="0 0 500 501" fill="none" xmlns="http://www.w3.org/2000/svg">
<path d="M265.313 252.959C268.8 253.382 272.043 254.305 275.212 255.381C278.369 256.475 281.429 257.768 284.405 259.23C287.383 260.691 290.273 262.328 293.067 264.164C295.85 266.017 298.558 268.026 301.017 270.54C297.526 270.125 294.281 269.202 291.116 268.126C287.959 267.031 284.897 265.738 281.924 264.269C278.95 262.8 276.059 261.164 273.266 259.329C270.484 257.473 267.775 255.466 265.313 252.959Z" fill="#FFCB2E"/>
<path d="M283.165 261.75L370.12 304.565" stroke="#FFCB2E" stroke-width="5.61785" stroke-miterlimit="10"/>
<path d="M256.118 225.921C256.541 222.433 257.464 219.19 258.54 216.023C259.634 212.866 260.927 209.806 262.389 206.83C263.85 203.852 265.488 200.962 267.323 198.168C269.176 195.385 271.184 192.677 273.699 190.219C273.284 193.711 272.361 196.954 271.285 200.121C270.19 203.278 268.898 206.338 267.429 209.311C265.959 212.285 264.323 215.175 262.488 217.969C260.632 220.751 258.627 223.46 256.118 225.921Z" fill="#FFCB2E"/>
<path d="M264.909 208.07L273.699 190.219" stroke="#FFCB2E" stroke-width="5.61785" stroke-miterlimit="10"/>
<path d="M229.082 235.118C225.594 234.696 222.352 233.773 219.184 232.697C216.026 231.603 212.966 230.309 209.989 228.847C207.011 227.385 204.122 225.748 201.327 223.913C198.544 222.06 195.836 220.051 193.377 217.537C196.868 217.953 200.113 218.876 203.28 219.951C206.437 221.047 209.497 222.339 212.47 223.808C215.445 225.276 218.335 226.913 221.129 228.749C223.911 230.604 226.62 232.611 229.082 235.118Z" fill="#FFCB2E"/>
<path d="M211.23 226.328L34.2341 139.177" stroke="#FFCB2E" stroke-width="5.61785" stroke-miterlimit="10"/>
<path d="M238.273 262.154C237.85 265.643 236.926 268.884 235.852 272.053C234.756 275.21 233.464 278.27 232.002 281.246C230.54 284.224 228.903 287.113 227.068 289.908C225.216 292.69 223.208 295.399 220.692 297.857C221.108 294.366 222.031 291.123 223.106 287.956C224.202 284.798 225.494 281.738 226.963 278.765C228.431 275.792 230.068 272.901 231.903 270.108C233.758 267.325 235.765 264.616 238.273 262.154" fill="#FFCB2E"/>
<path d="M229.483 280.006L188.534 363.17" stroke="#FFCB2E" stroke-width="5.61785" stroke-miterlimit="10"/>
<path d="M266.317 237.536C269.083 235.367 272.026 233.728 275.026 232.248C278.035 230.79 281.112 229.542 284.251 228.47C287.388 227.397 290.59 226.511 293.863 225.834C297.142 225.175 300.476 224.682 303.993 224.72C301.229 226.897 298.286 228.537 295.286 230.016C292.277 231.474 289.2 232.723 286.06 233.786C282.918 234.852 279.717 235.738 276.445 236.415C273.165 237.071 269.831 237.568 266.317 237.536Z" fill="#FFCB2E"/>
<path d="M285.155 231.128L388.077 196.121" stroke="#FFCB2E" stroke-width="5.61785" stroke-miterlimit="10"/>
<path d="M240.695 224.919C238.527 222.154 236.888 219.209 235.406 216.209C233.948 213.202 232.7 210.125 231.63 206.984C230.557 203.847 229.67 200.646 228.993 197.374C228.335 194.094 227.84 190.76 227.88 187.243C230.055 190.006 231.697 192.95 233.176 195.951C234.632 198.958 235.882 202.035 236.945 205.177C238.011 208.319 238.898 211.519 239.575 214.792C240.23 218.071 240.726 221.405 240.695 224.919Z" fill="#FFCB2E"/>
<path d="M234.287 206.081L164.404 0.999987" stroke="#FFCB2E" stroke-width="5.61785" stroke-miterlimit="10"/>
<path d="M228.078 250.541C225.312 252.71 222.368 254.349 219.368 255.829C216.361 257.287 213.282 258.535 210.143 259.607C207.006 260.68 203.804 261.565 200.533 262.243C197.253 262.9 193.918 263.395 190.402 263.356C193.165 261.18 196.109 259.54 199.11 258.061C202.117 256.603 205.194 255.354 208.335 254.29C211.476 253.225 214.677 252.339 217.949 251.661C221.23 251.005 224.565 250.509 228.078 250.541Z" fill="#FFCB2E"/>
<path d="M209.24 256.949L184.426 265.388" stroke="#FFCB2E" stroke-width="5.61785" stroke-miterlimit="10"/>
<path d="M253.7 263.158C255.869 265.923 257.508 268.869 258.988 271.869C260.446 274.876 261.694 277.953 262.766 281.093C263.839 284.231 264.724 287.431 265.402 290.704C266.06 293.983 266.554 297.317 266.515 300.834C264.339 298.07 262.697 295.126 261.22 292.127C259.762 289.118 258.513 286.041 257.449 282.901C256.384 279.759 255.497 276.558 254.82 273.286C254.164 270.006 253.668 266.672 253.7 263.158Z" fill="#FFCB2E"/>
<path d="M260.107 281.996L272.109 317.283" stroke="#FFCB2E" stroke-width="5.61785" stroke-miterlimit="10"/>
<path d="M260.522 259.214C263.584 260.94 266.226 263.034 268.741 265.237C271.239 267.458 273.57 269.824 275.761 272.313C277.952 274.803 279.995 277.422 281.875 280.185C283.737 282.963 285.471 285.855 286.779 289.119C283.713 287.398 281.068 285.306 278.556 283.101C276.059 280.88 273.724 278.514 271.54 276.019C269.355 273.524 267.31 270.906 265.432 268.142C263.572 265.364 261.837 262.473 260.522 259.214Z" fill="#FFCB2E"/>
<path d="M273.651 274.166L420.948 441.922" stroke="#FFCB2E" stroke-width="5.61785" stroke-miterlimit="10"/>
<path d="M262.373 230.714C264.099 227.652 266.193 225.011 268.396 222.495C270.617 219.998 272.983 217.667 275.472 215.474C277.962 213.285 280.58 211.241 283.344 209.362C286.122 207.5 289.014 205.765 292.278 204.458C290.556 207.524 288.465 210.167 286.258 212.681C284.038 215.178 281.673 217.511 279.178 219.695C276.683 221.881 274.065 223.925 271.301 225.804C268.523 227.665 265.631 229.4 262.373 230.714Z" fill="#FFCB2E"/>
<path d="M277.325 217.586L411.562 99.7191" stroke="#FFCB2E" stroke-width="5.61785" stroke-miterlimit="10"/>
<path d="M233.873 228.863C230.811 227.138 228.17 225.044 225.654 222.839C223.157 220.62 220.824 218.253 218.633 215.763C216.442 213.275 214.399 210.655 212.521 207.891C210.659 205.115 208.924 202.223 207.615 198.959C210.683 200.679 213.326 202.772 215.84 204.977C218.336 207.197 220.67 209.564 222.854 212.058C225.04 214.553 227.084 217.171 228.963 219.936C230.824 222.714 232.557 225.604 233.873 228.863Z" fill="#FFCB2E"/>
<path d="M220.745 213.911L161.351 146.268" stroke="#FFCB2E" stroke-width="5.61785" stroke-miterlimit="10"/>
<path d="M232.022 257.363C230.295 260.425 228.203 263.067 225.998 265.582C223.777 268.079 221.412 270.411 218.922 272.602C216.432 274.793 213.814 276.836 211.05 278.715C208.273 280.578 205.38 282.312 202.118 283.62C203.838 280.554 205.931 277.911 208.136 275.397C210.356 272.899 212.721 270.565 215.217 268.381C217.711 266.196 220.329 264.151 223.093 262.273C225.873 260.412 228.763 258.678 232.022 257.363Z" fill="#FFCB2E"/>
<path d="M217.069 270.492L173.076 309.12" stroke="#FFCB2E" stroke-width="5.61785" stroke-miterlimit="10"/>
<path d="M267.35 245.347C270.735 244.402 274.083 244.016 277.42 243.797C280.757 243.6 284.078 243.623 287.389 243.835C290.698 244.045 293.995 244.451 297.278 245.078C300.558 245.727 303.829 246.545 307.061 247.926C303.676 248.88 300.328 249.269 296.99 249.485C293.654 249.682 290.332 249.658 287.024 249.439C283.715 249.221 280.418 248.815 277.135 248.189C273.854 247.54 270.584 246.722 267.35 245.347Z" fill="#FFCB2E"/>
<path d="M287.206 246.636L364.472 251.655" stroke="#FFCB2E" stroke-width="5.61785" stroke-miterlimit="10"/>
<path d="M248.506 223.887C247.561 220.502 247.175 217.152 246.956 213.815C246.759 210.48 246.782 207.158 246.994 203.848C247.204 200.539 247.61 197.241 248.237 193.957C248.884 190.677 249.704 187.407 251.085 184.174C252.038 187.559 252.427 190.908 252.644 194.245C252.84 197.581 252.817 200.903 252.597 204.211C252.38 207.522 251.974 210.818 251.347 214.1C250.699 217.381 249.881 220.652 248.506 223.887Z" fill="#FFCB2E"/>
<path d="M249.795 204.029L256.597 99.2887" stroke="#FFCB2E" stroke-width="5.61785" stroke-miterlimit="10"/>
<path d="M227.046 242.729C223.661 243.674 220.311 244.062 216.974 244.281C213.637 244.478 210.316 244.455 207.007 244.242C203.696 244.032 200.4 243.625 197.116 242.999C193.836 242.351 190.565 241.532 187.333 240.15C190.718 239.198 194.066 238.809 197.404 238.591C200.74 238.396 204.062 238.419 207.37 238.638C210.681 238.855 213.976 239.263 217.259 239.889C220.54 240.537 223.811 241.354 227.046 242.729Z" fill="#FFCB2E"/>
<path d="M207.188 241.44L163.146 238.58" stroke="#FFCB2E" stroke-width="5.61785" stroke-miterlimit="10"/>
<path d="M245.888 264.191C246.833 267.576 247.221 270.924 247.44 274.262C247.636 277.598 247.614 280.919 247.4 284.23C247.191 287.539 246.784 290.836 246.157 294.119C245.51 297.401 244.691 300.67 243.309 303.903C242.357 300.517 241.968 297.169 241.75 293.832C241.554 290.495 241.578 287.173 241.797 283.866C242.014 280.556 242.42 277.259 243.048 273.977C243.695 270.695 244.513 267.425 245.888 264.191Z" fill="#FFCB2E"/>
<path d="M244.599 284.047L242.696 313.366" stroke="#FFCB2E" stroke-width="5.61785" stroke-miterlimit="10"/>
<path d="M263.226 256.324C266.565 257.418 269.565 258.956 272.461 260.627C275.345 262.319 278.093 264.183 280.728 266.197C283.363 268.211 285.878 270.382 288.26 272.726C290.629 275.086 292.892 277.584 294.813 280.53C291.469 279.441 288.469 277.905 285.572 276.232C282.69 274.541 279.94 272.677 277.311 270.655C274.68 268.637 272.165 266.467 269.784 264.123C267.417 261.759 265.151 259.263 263.226 256.324Z" fill="#FFCB2E"/>
<path d="M279.019 268.426L294.813 280.53" stroke="#FFCB2E" stroke-width="5.61785" stroke-miterlimit="10"/>
<path d="M259.481 228.009C260.577 224.67 262.115 221.671 263.786 218.774C265.477 215.892 267.342 213.142 269.356 210.508C271.37 207.872 273.54 205.358 275.884 202.976C278.245 200.607 280.744 198.343 283.689 196.423C282.6 199.767 281.064 202.767 279.391 205.663C277.7 208.546 275.836 211.295 273.814 213.924C271.794 216.555 269.626 219.07 267.282 221.452C264.918 223.82 262.422 226.085 259.481 228.009Z" fill="#FFCB2E"/>
<path d="M271.585 212.216L330.983 134.711" stroke="#FFCB2E" stroke-width="5.61785" stroke-miterlimit="10"/>
<path d="M231.168 231.754C227.829 230.66 224.829 229.12 221.933 227.45C219.049 225.758 216.301 223.893 213.667 221.879C211.031 219.865 208.516 217.695 206.135 215.351C203.766 212.991 201.502 210.492 199.582 207.548C202.926 208.635 205.925 210.173 208.822 211.845C211.704 213.535 214.454 215.4 217.083 217.421C219.714 219.441 222.229 221.611 224.611 223.955C226.979 226.318 229.243 228.814 231.168 231.754Z" fill="#FFCB2E"/>
<path d="M215.375 219.65L176.974 190.222" stroke="#FFCB2E" stroke-width="5.61785" stroke-miterlimit="10"/>
<path d="M234.913 260.068C233.819 263.406 232.279 266.406 230.608 269.302C228.917 272.186 227.052 274.934 225.038 277.569C223.024 280.204 220.854 282.719 218.51 285.101C216.149 287.471 213.65 289.733 210.705 291.654C211.794 288.31 213.332 285.31 215.004 282.414C216.694 279.531 218.559 276.783 220.58 274.152C222.6 271.523 224.77 269.006 227.114 266.625C229.476 264.258 231.972 261.992 234.913 260.068Z" fill="#FFCB2E"/>
<path d="M222.809 275.861L127.374 400.391" stroke="#FFCB2E" stroke-width="5.61785" stroke-miterlimit="10"/>
<path d="M267.218 241.39C270.353 239.803 273.562 238.771 276.792 237.904C280.026 237.06 283.288 236.437 286.576 235.997C289.862 235.559 293.176 235.315 296.517 235.288C299.862 235.282 303.23 235.448 306.671 236.173C303.536 237.767 300.327 238.802 297.097 239.666C293.864 240.51 290.6 241.135 287.313 241.566C284.024 241.998 280.711 242.241 277.37 242.268C274.026 242.272 270.658 242.109 267.218 241.39Z" fill="#FFCB2E"/>
<path d="M286.944 238.782L313.296 235.297" stroke="#FFCB2E" stroke-width="5.61785" stroke-miterlimit="10"/>
<path d="M244.549 224.018C242.962 220.883 241.93 217.673 241.064 214.444C240.22 211.209 239.596 207.948 239.156 204.66C238.718 201.373 238.474 198.061 238.446 194.718C238.44 191.374 238.607 188.006 239.332 184.565C240.926 187.7 241.961 190.908 242.825 194.14C243.669 197.373 244.294 200.635 244.725 203.923C245.156 207.211 245.401 210.526 245.427 213.865C245.43 217.211 245.267 220.579 244.549 224.018Z" fill="#FFCB2E"/>
<path d="M241.941 204.291L223.256 63.0275" stroke="#FFCB2E" stroke-width="5.61785" stroke-miterlimit="10"/>
<path d="M227.177 246.686C224.043 248.274 220.832 249.306 217.603 250.172C214.369 251.016 211.106 251.641 207.82 252.079C204.532 252.518 201.219 252.763 197.877 252.79C194.532 252.795 191.166 252.629 187.725 251.905C190.859 250.309 194.067 249.276 197.299 248.41C200.531 247.568 203.794 246.943 207.082 246.512C210.37 246.079 213.683 245.836 217.025 245.808C220.37 245.805 223.736 245.968 227.177 246.686Z" fill="#FFCB2E"/>
<path d="M207.45 249.296L96.4473 263.977" stroke="#FFCB2E" stroke-width="5.61785" stroke-miterlimit="10"/>
<path d="M249.845 264.059C251.432 267.194 252.466 270.403 253.331 273.633C254.175 276.866 254.8 280.129 255.238 283.417C255.676 286.705 255.922 290.016 255.949 293.359C255.954 296.703 255.787 300.071 255.064 303.512C253.468 300.377 252.433 297.169 251.57 293.938C250.727 290.705 250.102 287.441 249.671 284.154C249.238 280.866 248.994 277.552 248.967 274.212C248.964 270.867 249.127 267.499 249.845 264.059Z" fill="#FFCB2E"/>
<path d="M252.454 283.785L272.234 433.325" stroke="#FFCB2E" stroke-width="5.61785" stroke-miterlimit="10"/>
<path d="M257.305 261.522C259.97 263.811 262.153 266.38 264.189 269.035C266.206 271.699 268.033 274.474 269.695 277.343C271.359 280.213 272.852 283.179 274.155 286.256C275.441 289.344 276.577 292.517 277.224 295.974C274.55 293.688 272.368 291.121 270.331 288.468C268.316 285.802 266.49 283.027 264.833 280.155C263.177 277.282 261.682 274.314 260.379 271.237C259.095 268.148 257.959 264.976 257.305 261.522Z" fill="#FFCB2E"/>
<path d="M267.265 278.748L311.793 355.768" stroke="#FFCB2E" stroke-width="5.61785" stroke-miterlimit="10"/>
<path d="M264.681 233.931C266.97 231.265 269.539 229.082 272.192 227.046C274.856 225.029 277.633 223.203 280.502 221.54C283.37 219.876 286.337 218.383 289.413 217.08C292.503 215.795 295.676 214.658 299.132 214.011C296.847 216.685 294.278 218.868 291.627 220.904C288.96 222.92 286.186 224.747 283.312 226.403C280.44 228.06 277.473 229.554 274.395 230.858C271.307 232.14 268.133 233.277 264.681 233.931Z" fill="#FFCB2E"/>
<path d="M281.907 223.972L342.33 189.037" stroke="#FFCB2E" stroke-width="5.61785" stroke-miterlimit="10"/>
<path d="M237.089 226.556C234.424 224.266 232.241 221.696 230.205 219.043C228.188 216.379 226.362 213.604 224.699 210.734C223.035 207.865 221.542 204.899 220.239 201.822C218.954 198.733 217.817 195.559 217.17 192.103C219.844 194.389 222.027 196.957 224.063 199.61C226.078 202.275 227.906 205.049 229.562 207.923C231.217 210.796 232.713 213.764 234.016 216.841C235.299 219.929 236.436 223.102 237.089 226.556Z" fill="#FFCB2E"/>
<path d="M227.131 209.329L210.821 181.119" stroke="#FFCB2E" stroke-width="5.61785" stroke-miterlimit="10"/>
<path d="M229.715 254.146C227.424 256.811 224.855 258.994 222.202 261.03C219.538 263.049 216.763 264.874 213.892 266.536C211.024 268.2 208.056 269.693 204.981 270.998C201.891 272.281 198.718 273.419 195.262 274.065C197.547 271.392 200.116 269.208 202.769 267.173C205.434 265.157 208.208 263.331 211.082 261.674C213.955 260.018 216.923 258.523 219.999 257.22C223.087 255.936 226.261 254.8 229.715 254.146Z" fill="#FFCB2E"/>
<path d="M212.488 264.106L57.4998 353.713" stroke="#FFCB2E" stroke-width="5.61785" stroke-miterlimit="10"/>
<path d="M266.707 249.253C270.211 248.988 273.572 249.262 276.887 249.696C280.196 250.157 283.451 250.826 286.656 251.68C289.859 252.531 293.014 253.574 296.112 254.828C299.204 256.103 302.252 257.544 305.154 259.53C301.647 259.805 298.287 259.533 294.971 259.096C291.662 258.637 288.407 257.965 285.205 257.106C282.003 256.246 278.848 255.204 275.75 253.95C272.659 252.673 269.61 251.234 266.707 249.253Z" fill="#FFCB2E"/>
<path d="M285.93 254.393L486.833 308.064" stroke="#FFCB2E" stroke-width="5.61785" stroke-miterlimit="10"/>
<path d="M252.412 224.528C252.147 221.024 252.419 217.665 252.855 214.349C253.314 211.039 253.985 207.784 254.839 204.581C255.69 201.376 256.733 198.221 257.987 195.123C259.262 192.031 260.703 188.984 262.689 186.083C262.964 189.588 262.692 192.949 262.255 196.265C261.796 199.574 261.124 202.828 260.265 206.03C259.405 209.234 258.363 212.387 257.109 215.487C255.832 218.578 254.391 221.625 252.412 224.528Z" fill="#FFCB2E"/>
<path d="M257.552 205.306L274.923 140.315" stroke="#FFCB2E" stroke-width="5.61785" stroke-miterlimit="10"/>
<path d="M227.687 238.823C224.183 239.09 220.824 238.816 217.508 238.38C214.198 237.921 210.943 237.251 207.74 236.397C204.535 235.546 201.38 234.504 198.282 233.248C195.19 231.975 192.142 230.534 189.242 228.546C192.747 228.272 196.108 228.545 199.423 228.982C202.733 229.439 205.987 230.111 209.189 230.972C212.391 231.831 215.546 232.873 218.646 234.128C221.735 235.404 224.784 236.844 227.687 238.823Z" fill="#FFCB2E"/>
<path d="M208.464 233.685L127.275 211.983" stroke="#FFCB2E" stroke-width="5.61785" stroke-miterlimit="10"/>
<path d="M241.982 263.549C242.247 267.052 241.975 270.413 241.539 273.729C241.08 277.037 240.41 280.292 239.556 283.497C238.704 286.702 237.661 289.855 236.407 292.954C235.132 296.046 233.692 299.093 231.705 301.995C231.431 298.489 231.704 295.128 232.141 291.812C232.598 288.504 233.27 285.249 234.131 282.047C234.989 278.844 236.032 275.689 237.285 272.591C238.563 269.5 240.003 266.452 241.982 263.549Z" fill="#FFCB2E"/>
<path d="M236.844 282.771L180.651 493.317" stroke="#FFCB2E" stroke-width="5.61785" stroke-miterlimit="10"/>
</svg>
