<svg width="334" height="335" viewBox="0 0 334 335" fill="none" xmlns="http://www.w3.org/2000/svg">
<path d="M177.229 169.309C179.559 169.591 181.725 170.208 183.841 170.926C185.95 171.657 187.995 172.521 189.983 173.498C191.972 174.473 193.902 175.567 195.768 176.794C197.628 178.031 199.437 179.374 201.079 181.053C198.747 180.775 196.58 180.159 194.465 179.44C192.356 178.708 190.311 177.845 188.325 176.864C186.339 175.883 184.407 174.79 182.542 173.563C180.683 172.324 178.874 170.983 177.229 169.309Z" fill="#FB372D"/>
<path d="M189.155 175.181L247.24 203.781" stroke="#FB372D" stroke-width="3.75273" stroke-miterlimit="10"/>
<path d="M171.087 151.247C171.369 148.917 171.986 146.751 172.704 144.636C173.435 142.527 174.299 140.482 175.276 138.494C176.252 136.505 177.346 134.575 178.572 132.708C179.809 130.849 181.151 129.04 182.831 127.398C182.553 129.731 181.937 131.897 181.218 134.013C180.487 136.122 179.623 138.166 178.642 140.152C177.661 142.138 176.568 144.069 175.342 145.935C174.102 147.794 172.763 149.603 171.087 151.247Z" fill="#FB372D"/>
<path d="M176.959 139.323L182.831 127.398" stroke="#FB372D" stroke-width="3.75273" stroke-miterlimit="10"/>
<path d="M153.027 157.391C150.697 157.109 148.531 156.492 146.415 155.774C144.306 155.043 142.262 154.179 140.273 153.202C138.284 152.225 136.354 151.131 134.487 149.906C132.627 148.668 130.819 147.326 129.176 145.647C131.508 145.925 133.675 146.541 135.791 147.26C137.9 147.991 139.944 148.854 141.93 149.836C143.917 150.816 145.848 151.91 147.714 153.136C149.573 154.376 151.383 155.716 153.027 157.391Z" fill="#FB372D"/>
<path d="M141.102 151.519L22.8684 93.3021" stroke="#FB372D" stroke-width="3.75273" stroke-miterlimit="10"/>
<path d="M159.167 175.451C158.884 177.781 158.267 179.947 157.549 182.063C156.817 184.172 155.954 186.217 154.978 188.205C154.001 190.194 152.907 192.123 151.682 193.99C150.444 195.849 149.103 197.659 147.422 199.301C147.7 196.968 148.316 194.802 149.035 192.686C149.767 190.577 150.63 188.533 151.611 186.547C152.592 184.561 153.686 182.63 154.911 180.764C156.15 178.905 157.491 177.096 159.167 175.451" fill="#FB372D"/>
<path d="M153.295 187.376L125.941 242.93" stroke="#FB372D" stroke-width="3.75273" stroke-miterlimit="10"/>
<path d="M177.9 159.006C179.747 157.557 181.714 156.462 183.718 155.474C185.727 154.5 187.783 153.666 189.88 152.95C191.975 152.233 194.114 151.641 196.3 151.189C198.491 150.749 200.718 150.42 203.068 150.445C201.221 151.899 199.255 152.995 197.251 153.983C195.241 154.957 193.186 155.791 191.088 156.501C188.989 157.213 186.851 157.805 184.665 158.257C182.474 158.695 180.247 159.027 177.9 159.006Z" fill="#FB372D"/>
<path d="M190.484 154.726L259.236 131.341" stroke="#FB372D" stroke-width="3.75273" stroke-miterlimit="10"/>
<path d="M160.784 150.578C159.336 148.731 158.241 146.763 157.251 144.759C156.277 142.751 155.443 140.695 154.728 138.597C154.012 136.502 153.42 134.363 152.967 132.178C152.527 129.987 152.197 127.76 152.223 125.41C153.677 127.256 154.773 129.222 155.761 131.227C156.734 133.236 157.569 135.291 158.279 137.39C158.991 139.489 159.583 141.627 160.036 143.813C160.474 146.003 160.805 148.231 160.784 150.578Z" fill="#FB372D"/>
<path d="M156.504 137.994L109.822 1" stroke="#FB372D" stroke-width="3.75273" stroke-miterlimit="10"/>
<path d="M152.356 167.694C150.508 169.142 148.542 170.237 146.538 171.226C144.529 172.2 142.473 173.034 140.376 173.75C138.28 174.466 136.141 175.057 133.956 175.511C131.765 175.95 129.537 176.28 127.189 176.254C129.034 174.8 131.001 173.705 133.005 172.717C135.014 171.743 137.07 170.909 139.167 170.198C141.266 169.486 143.404 168.894 145.59 168.441C147.782 168.003 150.009 167.672 152.356 167.694Z" fill="#FB372D"/>
<path d="M139.773 171.974L123.197 177.612" stroke="#FB372D" stroke-width="3.75273" stroke-miterlimit="10"/>
<path d="M169.472 176.122C170.92 177.969 172.015 179.936 173.004 181.94C173.978 183.949 174.812 186.004 175.528 188.102C176.244 190.198 176.835 192.336 177.289 194.522C177.728 196.713 178.058 198.94 178.032 201.289C176.578 199.443 175.482 197.477 174.495 195.473C173.521 193.463 172.687 191.407 171.976 189.31C171.265 187.211 170.672 185.073 170.219 182.887C169.781 180.696 169.45 178.469 169.472 176.122Z" fill="#FB372D"/>
<path d="M173.751 188.706L181.769 212.277" stroke="#FB372D" stroke-width="3.75273" stroke-miterlimit="10"/>
<path d="M174.029 173.487C176.074 174.64 177.839 176.038 179.519 177.51C181.187 178.994 182.745 180.575 184.208 182.237C185.672 183.9 187.037 185.65 188.292 187.496C189.536 189.351 190.695 191.283 191.568 193.463C189.52 192.314 187.754 190.916 186.075 189.443C184.407 187.96 182.848 186.379 181.389 184.713C179.929 183.046 178.563 181.297 177.309 179.451C176.066 177.595 174.907 175.664 174.029 173.487Z" fill="#FB372D"/>
<path d="M182.799 183.475L281.193 295.536" stroke="#FB372D" stroke-width="3.75273" stroke-miterlimit="10"/>
<path d="M175.265 154.449C176.418 152.404 177.817 150.639 179.289 148.959C180.772 147.291 182.353 145.733 184.015 144.269C185.679 142.806 187.427 141.441 189.274 140.186C191.13 138.942 193.061 137.783 195.242 136.91C194.091 138.958 192.694 140.723 191.221 142.403C189.737 144.071 188.157 145.629 186.491 147.088C184.824 148.549 183.075 149.914 181.229 151.169C179.373 152.412 177.441 153.571 175.265 154.449Z" fill="#FB372D"/>
<path d="M185.253 145.679L274.924 66.9443" stroke="#FB372D" stroke-width="3.75273" stroke-miterlimit="10"/>
<path d="M156.227 153.212C154.182 152.06 152.417 150.661 150.737 149.188C149.069 147.706 147.511 146.125 146.047 144.462C144.583 142.799 143.218 141.05 141.964 139.203C140.72 137.349 139.561 135.417 138.687 133.237C140.736 134.386 142.502 135.784 144.181 137.257C145.848 138.74 147.407 140.321 148.866 141.987C150.327 143.653 151.692 145.402 152.947 147.249C154.19 149.105 155.348 151.036 156.227 153.212Z" fill="#FB372D"/>
<path d="M147.457 143.225L107.783 98.0391" stroke="#FB372D" stroke-width="3.75273" stroke-miterlimit="10"/>
<path d="M154.99 172.251C153.837 174.296 152.439 176.061 150.967 177.741C149.483 179.409 147.903 180.966 146.24 182.43C144.577 183.894 142.828 185.259 140.981 186.514C139.127 187.758 137.194 188.917 135.015 189.79C136.164 187.742 137.562 185.976 139.035 184.297C140.518 182.629 142.098 181.07 143.765 179.611C145.431 178.151 147.18 176.785 149.026 175.531C150.883 174.287 152.814 173.129 154.99 172.251Z" fill="#FB372D"/>
<path d="M145.002 181.021L115.615 206.824" stroke="#FB372D" stroke-width="3.75273" stroke-miterlimit="10"/>
<path d="M178.59 164.224C180.851 163.593 183.087 163.335 185.317 163.188C187.546 163.057 189.765 163.072 191.976 163.214C194.186 163.354 196.389 163.625 198.582 164.044C200.773 164.477 202.958 165.024 205.117 165.946C202.856 166.584 200.619 166.843 198.389 166.988C196.161 167.119 193.942 167.103 191.732 166.957C189.522 166.811 187.32 166.54 185.126 166.122C182.935 165.688 180.75 165.142 178.59 164.224Z" fill="#FB372D"/>
<path d="M191.854 165.085L243.468 168.437" stroke="#FB372D" stroke-width="3.75273" stroke-miterlimit="10"/>
<path d="M166.002 149.888C165.371 147.627 165.113 145.39 164.966 143.161C164.835 140.932 164.85 138.714 164.992 136.502C165.133 134.292 165.404 132.089 165.822 129.896C166.255 127.704 166.803 125.52 167.725 123.36C168.362 125.621 168.622 127.859 168.766 130.088C168.897 132.316 168.882 134.535 168.735 136.745C168.59 138.957 168.319 141.158 167.9 143.351C167.467 145.543 166.921 147.728 166.002 149.888Z" fill="#FB372D"/>
<path d="M166.863 136.624L171.407 66.6568" stroke="#FB372D" stroke-width="3.75273" stroke-miterlimit="10"/>
<path d="M151.666 162.475C149.405 163.106 147.168 163.365 144.939 163.512C142.71 163.643 140.491 163.628 138.28 163.485C136.069 163.346 133.867 163.073 131.674 162.655C129.482 162.223 127.297 161.676 125.138 160.752C127.399 160.116 129.636 159.856 131.866 159.711C134.094 159.581 136.313 159.596 138.523 159.742C140.735 159.887 142.936 160.16 145.129 160.578C147.321 161.01 149.506 161.556 151.666 162.475Z" fill="#FB372D"/>
<path d="M138.402 161.614L108.981 159.704" stroke="#FB372D" stroke-width="3.75273" stroke-miterlimit="10"/>
<path d="M164.253 176.812C164.885 179.073 165.144 181.309 165.29 183.539C165.421 185.767 165.406 187.986 165.264 190.197C165.124 192.408 164.852 194.611 164.433 196.803C164.001 198.996 163.454 201.18 162.531 203.34C161.895 201.078 161.635 198.841 161.489 196.612C161.358 194.383 161.374 192.164 161.52 189.955C161.666 187.743 161.937 185.541 162.356 183.349C162.789 181.156 163.335 178.972 164.253 176.812Z" fill="#FB372D"/>
<path d="M163.392 190.075L162.121 209.661" stroke="#FB372D" stroke-width="3.75273" stroke-miterlimit="10"/>
<path d="M175.835 171.556C178.066 172.287 180.07 173.314 182.004 174.431C183.931 175.561 185.767 176.806 187.527 178.152C189.287 179.497 190.967 180.947 192.558 182.513C194.141 184.089 195.652 185.758 196.936 187.726C194.702 186.999 192.698 185.972 190.762 184.855C188.837 183.725 187 182.48 185.244 181.129C183.487 179.781 181.806 178.332 180.216 176.766C178.634 175.187 177.121 173.52 175.835 171.556Z" fill="#FB372D"/>
<path d="M186.385 179.641L196.935 187.726" stroke="#FB372D" stroke-width="3.75273" stroke-miterlimit="10"/>
<path d="M173.334 152.642C174.066 150.411 175.093 148.408 176.209 146.473C177.339 144.548 178.585 142.711 179.93 140.952C181.275 139.191 182.725 137.511 184.291 135.92C185.868 134.337 187.537 132.825 189.504 131.543C188.777 133.776 187.751 135.78 186.633 137.715C185.504 139.641 184.259 141.477 182.908 143.233C181.559 144.991 180.11 146.671 178.544 148.262C176.965 149.844 175.298 151.357 173.334 152.642Z" fill="#FB372D"/>
<path d="M181.419 142.092L221.097 90.3189" stroke="#FB372D" stroke-width="3.75273" stroke-miterlimit="10"/>
<path d="M154.421 155.143C152.19 154.413 150.186 153.384 148.251 152.269C146.325 151.138 144.489 149.892 142.73 148.547C140.969 147.202 139.289 145.752 137.698 144.186C136.116 142.61 134.603 140.94 133.321 138.974C135.555 139.7 137.558 140.727 139.493 141.845C141.418 142.973 143.255 144.219 145.011 145.569C146.769 146.918 148.449 148.368 150.04 149.934C151.622 151.513 153.134 153.18 154.421 155.143Z" fill="#FB372D"/>
<path d="M143.871 147.058L118.219 127.4" stroke="#FB372D" stroke-width="3.75273" stroke-miterlimit="10"/>
<path d="M156.922 174.057C156.191 176.288 155.163 178.291 154.046 180.226C152.917 182.152 151.671 183.988 150.325 185.748C148.98 187.508 147.531 189.188 145.965 190.78C144.388 192.362 142.719 193.874 140.751 195.157C141.478 192.923 142.506 190.919 143.623 188.985C144.752 187.059 145.998 185.223 147.348 183.466C148.697 181.709 150.146 180.028 151.712 178.438C153.29 176.856 154.957 175.343 156.922 174.057Z" fill="#FB372D"/>
<path d="M148.837 184.607L85.0862 267.793" stroke="#FB372D" stroke-width="3.75273" stroke-miterlimit="10"/>
<path d="M178.502 161.581C180.596 160.521 182.74 159.831 184.898 159.252C187.057 158.688 189.237 158.272 191.433 157.978C193.628 157.685 195.841 157.522 198.073 157.504C200.308 157.501 202.558 157.611 204.856 158.095C202.762 159.16 200.619 159.852 198.461 160.429C196.301 160.992 194.121 161.41 191.925 161.698C189.728 161.987 187.515 162.149 185.283 162.167C183.049 162.17 180.8 162.061 178.502 161.581Z" fill="#FB372D"/>
<path d="M191.678 159.838L209.282 157.511" stroke="#FB372D" stroke-width="3.75273" stroke-miterlimit="10"/>
<path d="M163.359 149.976C162.299 147.882 161.609 145.737 161.031 143.581C160.467 141.42 160.05 139.242 159.757 137.045C159.464 134.849 159.301 132.637 159.282 130.404C159.278 128.17 159.39 125.92 159.874 123.622C160.939 125.716 161.63 127.859 162.207 130.017C162.771 132.177 163.188 134.356 163.476 136.553C163.764 138.749 163.928 140.963 163.946 143.194C163.947 145.429 163.839 147.679 163.359 149.976Z" fill="#FB372D"/>
<path d="M161.616 136.799L149.135 42.4344" stroke="#FB372D" stroke-width="3.75273" stroke-miterlimit="10"/>
<path d="M151.754 165.118C149.66 166.179 147.516 166.869 145.359 167.447C143.198 168.01 141.019 168.428 138.823 168.721C136.627 169.014 134.414 169.178 132.182 169.195C129.947 169.199 127.698 169.088 125.4 168.604C127.494 167.539 129.637 166.848 131.795 166.27C133.954 165.707 136.135 165.29 138.331 165.002C140.527 164.713 142.74 164.55 144.972 164.532C147.207 164.53 149.456 164.639 151.754 165.118Z" fill="#FB372D"/>
<path d="M138.577 166.862L64.427 176.668" stroke="#FB372D" stroke-width="3.75273" stroke-miterlimit="10"/>
<path d="M166.896 176.724C167.957 178.818 168.647 180.961 169.225 183.119C169.789 185.279 170.206 187.458 170.499 189.655C170.792 191.851 170.956 194.063 170.974 196.296C170.978 198.53 170.866 200.779 170.383 203.078C169.317 200.984 168.626 198.841 168.049 196.682C167.486 194.523 167.068 192.342 166.78 190.147C166.491 187.951 166.328 185.737 166.31 183.506C166.308 181.271 166.417 179.021 166.896 176.724Z" fill="#FB372D"/>
<path d="M168.639 189.9L181.853 289.793" stroke="#FB372D" stroke-width="3.75273" stroke-miterlimit="10"/>
<path d="M171.879 175.029C173.66 176.558 175.118 178.274 176.478 180.047C177.826 181.827 179.046 183.681 180.156 185.597C181.268 187.514 182.265 189.495 183.136 191.551C183.994 193.614 184.753 195.733 185.186 198.042C183.399 196.516 181.941 194.801 180.581 193.029C179.235 191.248 178.015 189.394 176.908 187.476C175.802 185.556 174.804 183.574 173.933 181.518C173.076 179.455 172.317 177.336 171.879 175.029Z" fill="#FB372D"/>
<path d="M178.533 186.536L208.278 237.985" stroke="#FB372D" stroke-width="3.75273" stroke-miterlimit="10"/>
<path d="M176.807 156.598C178.336 154.817 180.052 153.359 181.824 151.999C183.604 150.651 185.459 149.432 187.375 148.321C189.291 147.209 191.273 146.212 193.328 145.341C195.392 144.483 197.511 143.724 199.82 143.291C198.294 145.078 196.578 146.536 194.807 147.896C193.025 149.242 191.172 150.463 189.253 151.569C187.334 152.676 185.352 153.674 183.296 154.545C181.233 155.401 179.113 156.161 176.807 156.598Z" fill="#FB372D"/>
<path d="M188.314 149.945L228.677 126.609" stroke="#FB372D" stroke-width="3.75273" stroke-miterlimit="10"/>
<path d="M158.376 151.671C156.595 150.142 155.137 148.425 153.777 146.653C152.43 144.873 151.21 143.019 150.099 141.103C148.987 139.186 147.99 137.204 147.12 135.149C146.261 133.086 145.502 130.965 145.07 128.657C146.856 130.184 148.314 131.899 149.674 133.671C151.02 135.452 152.241 137.305 153.347 139.224C154.453 141.144 155.452 143.126 156.323 145.182C157.18 147.245 157.94 149.364 158.376 151.671Z" fill="#FB372D"/>
<path d="M151.723 140.164L140.828 121.319" stroke="#FB372D" stroke-width="3.75273" stroke-miterlimit="10"/>
<path d="M153.449 170.101C151.919 171.882 150.203 173.34 148.431 174.7C146.651 176.048 144.797 177.268 142.88 178.378C140.964 179.49 138.982 180.487 136.927 181.358C134.863 182.216 132.744 182.976 130.435 183.407C131.961 181.622 133.677 180.163 135.449 178.804C137.23 177.457 139.083 176.237 141.002 175.13C142.922 174.024 144.904 173.026 146.959 172.155C149.022 171.297 151.142 170.538 153.449 170.101Z" fill="#FB372D"/>
<path d="M141.942 176.755L38.4099 236.613" stroke="#FB372D" stroke-width="3.75273" stroke-miterlimit="10"/>
<path d="M178.16 166.833C180.501 166.656 182.746 166.839 184.961 167.129C187.171 167.437 189.345 167.884 191.486 168.454C193.626 169.023 195.733 169.719 197.803 170.557C199.869 171.409 201.905 172.371 203.843 173.698C201.5 173.882 199.256 173.7 197.041 173.408C194.831 173.101 192.656 172.653 190.517 172.079C188.378 171.504 186.271 170.808 184.201 169.971C182.136 169.118 180.099 168.156 178.16 166.833Z" fill="#FB372D"/>
<path d="M191.001 170.266L325.204 206.119" stroke="#FB372D" stroke-width="3.75273" stroke-miterlimit="10"/>
<path d="M168.611 150.317C168.434 147.976 168.616 145.732 168.907 143.517C169.214 141.306 169.662 139.132 170.232 136.992C170.801 134.851 171.497 132.744 172.335 130.674C173.187 128.608 174.149 126.573 175.476 124.635C175.66 126.977 175.478 129.222 175.186 131.437C174.879 133.647 174.431 135.821 173.857 137.96C173.282 140.1 172.586 142.206 171.749 144.277C170.896 146.342 169.933 148.378 168.611 150.317Z" fill="#FB372D"/>
<path d="M172.044 137.477L183.649 94.0622" stroke="#FB372D" stroke-width="3.75273" stroke-miterlimit="10"/>
<path d="M152.095 159.866C149.754 160.044 147.51 159.861 145.295 159.57C143.084 159.263 140.91 158.816 138.77 158.245C136.629 157.677 134.522 156.981 132.452 156.142C130.387 155.291 128.351 154.328 126.413 153.001C128.755 152.818 131 153 133.214 153.292C135.426 153.598 137.599 154.046 139.738 154.621C141.877 155.195 143.985 155.891 146.055 156.729C148.119 157.582 150.156 158.544 152.095 159.866Z" fill="#FB372D"/>
<path d="M139.254 156.433L85.0195 141.937" stroke="#FB372D" stroke-width="3.75273" stroke-miterlimit="10"/>
<path d="M161.644 176.383C161.821 178.723 161.639 180.968 161.348 183.183C161.042 185.393 160.594 187.567 160.024 189.708C159.454 191.849 158.758 193.955 157.92 196.026C157.068 198.09 156.107 200.126 154.779 202.065C154.596 199.723 154.778 197.478 155.07 195.263C155.376 193.052 155.824 190.879 156.399 188.74C156.973 186.6 157.67 184.492 158.507 182.423C159.36 180.358 160.322 178.322 161.644 176.383Z" fill="#FB372D"/>
<path d="M158.212 189.223L120.675 329.868" stroke="#FB372D" stroke-width="3.75273" stroke-miterlimit="10"/>
</svg>
