<svg width="59" height="32" viewBox="0 0 59 32" fill="none" xmlns="http://www.w3.org/2000/svg">
<path d="M15.9268 22.2734C13.0898 22.2734 9.8358 20.1034 9.8358 15.8484C9.8358 11.5934 13.0068 9.42345 15.9268 9.42345C18.8468 9.42345 22.0178 11.5934 22.0178 15.8484C22.0178 20.1034 18.7638 22.2734 15.9268 22.2734ZM15.9268 7.50446C11.2538 7.50446 7.6658 11.3424 7.6658 15.6814C7.6658 20.0204 10.9208 24.1924 15.9268 24.1924C20.9328 24.1924 24.1878 20.0204 24.1878 15.6814C24.1878 11.3424 20.5998 7.50446 15.9268 7.50446Z" fill="black"/>
<path d="M40.374 7.841H42.377V23.861H40.374V7.841Z" fill="black"/>
<path d="M41.208 7.8407H50.804V9.6757H46.966V23.8607H44.963V9.6757H41.208V7.8407Z" fill="black"/>
<path d="M34.5332 22.1083V9.59231C34.5332 9.59231 37.4542 9.50931 37.4542 12.5963C37.4542 14.7653 35.1172 15.6003 35.1172 15.6003C35.1172 15.6003 37.9542 15.9333 37.9542 18.7703C37.9542 22.1083 34.5332 22.1083 34.5332 22.1083ZM26.3562 9.50931C26.3562 9.50931 30.1942 9.59231 30.1942 13.2633C30.1942 16.6013 26.3562 17.0183 26.3562 17.0183V9.50931ZM38.2882 15.2663C38.2882 15.2663 39.2892 14.3483 39.2892 12.4293C39.2892 7.75631 34.1162 7.67331 32.6142 7.67331V22.0643C30.3812 21.4623 29.0882 20.1403 28.1922 18.1863C29.3602 17.7693 32.1132 16.7683 32.1132 13.1803C32.1132 8.92431 28.1922 7.58931 24.4372 7.67331V23.8603H26.3562V18.1863C26.6062 20.5233 29.5272 24.0273 33.3652 24.0273C38.7052 24.0273 39.8732 20.9113 39.8732 18.7703C39.8732 16.2673 38.2882 15.2663 38.2882 15.2663Z" fill="black"/>
</svg>
