<svg width="80" height="40" viewBox="0 0 80 40" fill="none" xmlns="http://www.w3.org/2000/svg">
<path d="M19.7891 29.5937C15.5421 29.5937 10.6711 26.3457 10.6711 19.9757C10.6711 13.6057 15.4171 10.3577 19.7891 10.3577C24.1601 10.3577 28.9071 13.6057 28.9071 19.9757C28.9071 26.3457 24.0361 29.5937 19.7891 29.5937ZM19.7891 7.48572C12.7941 7.48572 7.4231 13.2307 7.4231 19.7257C7.4231 26.2207 12.2951 32.4657 19.7891 32.4657C27.2831 32.4657 32.1541 26.2207 32.1541 19.7257C32.1541 13.2307 26.7831 7.48572 19.7891 7.48572Z" fill="black"/>
<path d="M56.387 7.98694H59.385V31.9691H56.387V7.98694Z" fill="black"/>
<path d="M57.6357 7.98737H71.9997V10.7354H66.2537V31.9693H63.2567V10.7354H57.6357V7.98737Z" fill="black"/>
<path d="M47.6436 29.3467V10.6106C47.6436 10.6106 52.0146 10.4856 52.0146 15.1076C52.0146 18.3547 48.5176 19.6037 48.5176 19.6037C48.5176 19.6037 52.7646 20.1037 52.7646 24.3507C52.7646 29.3467 47.6436 29.3467 47.6436 29.3467ZM35.4026 10.4856C35.4026 10.4856 41.1486 10.6106 41.1486 16.1066C41.1486 21.1027 35.4026 21.7277 35.4026 21.7277V10.4856ZM53.2636 19.1047C53.2636 19.1047 54.7626 17.7306 54.7626 14.8576C54.7626 7.86264 47.0186 7.73764 44.7706 7.73764V29.2817C41.4276 28.3807 39.4916 26.4017 38.1506 23.4757C39.8986 22.8517 44.0206 21.3527 44.0206 15.9816C44.0206 9.61164 38.1506 7.61264 32.5296 7.73764V31.9697H35.4026V23.4757C35.7776 26.9737 40.1486 32.2197 45.8946 32.2197C53.8886 32.2197 55.6366 27.5537 55.6366 24.3507C55.6366 20.6027 53.2636 19.1047 53.2636 19.1047Z" fill="black"/>
</svg>
